<svg width="26" height="26" viewBox="0 0 26 26" fill="none" xmlns="http://www.w3.org/2000/svg">
<path d="M13.0003 25.9996C16.448 25.9996 19.7546 24.6301 22.1923 22.1919C24.6305 19.754 26 16.4476 26 13.0001C26 9.55221 24.6305 6.24596 22.1923 3.80763C19.7544 1.36975 16.4479 0 13.0003 0C9.55237 0 6.24606 1.36975 3.8077 3.80763C1.36978 6.24551 0 9.55195 0 13.0001C0.00396973 16.4465 1.3748 19.7511 3.81195 22.1881C6.24911 24.6252 9.55345 25.996 13.0001 26L13.0003 25.9996ZM13.0003 1.99995V1.9997C15.9176 1.9997 18.7155 3.15858 20.7784 5.2216C22.8414 7.28436 24.0004 10.0822 24.0004 12.9996C24.0004 15.9168 22.8415 18.7146 20.7784 20.7776C18.7156 22.8405 15.9178 23.9995 13.0003 23.9995C10.0828 23.9995 7.28493 22.8406 5.22219 20.7776C3.1592 18.7148 2.00023 15.917 2.00023 12.9996C2.00371 10.0831 3.16359 7.28722 5.22588 5.22541C7.28791 3.16316 10.0838 2.00332 13.0002 1.99982L13.0003 1.99995Z" fill="#F4BC1D"/>
<path d="M5.9888 13.9366H11.9779V19.9094C11.9779 20.2651 12.1681 20.5936 12.4769 20.7714C12.7857 20.9493 13.1664 20.9493 13.4752 20.7714C13.784 20.5936 13.9742 20.2651 13.9742 19.9094V13.9366H19.9633C20.3199 13.9366 20.6493 13.747 20.8276 13.439C21.006 13.131 21.0059 12.7514 20.8276 12.4434C20.6493 12.1354 20.3199 11.9457 19.9633 11.9457H13.9742V5.97291C13.9742 5.61725 13.784 5.28878 13.4752 5.11092C13.1664 4.93306 12.7857 4.93309 12.4769 5.11092C12.1681 5.28875 11.9779 5.61724 11.9779 5.97291V11.9457H5.9888C5.63217 11.9457 5.30281 12.1354 5.12447 12.4434C4.94612 12.7514 4.94616 13.131 5.12447 13.439C5.30278 13.7469 5.63216 13.9366 5.9888 13.9366Z" fill="#F4BC1D"/>
</svg>
