<svg width="18" height="18" viewBox="0 0 18 18" fill="none" xmlns="http://www.w3.org/2000/svg">
<g clip-path="url(#clip0_1281_39)">
<path d="M3.5999 11.6999V10.7999C3.5999 10.3225 3.78954 9.86471 4.12711 9.52712C4.46468 9.18953 4.92252 8.9999 5.3999 8.9999H12.5999C13.0773 8.9999 13.5351 9.18953 13.8727 9.52712C14.2103 9.86471 14.3999 10.3225 14.3999 10.7999V11.6999M8.9999 6.2999V8.9999M0.899902 13.4999C0.899902 13.0225 1.08954 12.5647 1.42711 12.2271C1.76468 11.8895 2.22252 11.6999 2.6999 11.6999H4.4999C4.97729 11.6999 5.43513 11.8895 5.77269 12.2271C6.11026 12.5647 6.2999 13.0225 6.2999 13.4999V15.2999C6.2999 15.7773 6.11026 16.2351 5.77269 16.5727C5.43513 16.9103 4.97729 17.0999 4.4999 17.0999H2.6999C2.22252 17.0999 1.76468 16.9103 1.42711 16.5727C1.08954 16.2351 0.899902 15.7773 0.899902 15.2999V13.4999ZM11.6999 13.4999C11.6999 13.0225 11.8895 12.5647 12.2271 12.2271C12.5647 11.8895 13.0225 11.6999 13.4999 11.6999H15.2999C15.7773 11.6999 16.2351 11.8895 16.5727 12.2271C16.9103 12.5647 17.0999 13.0225 17.0999 13.4999V15.2999C17.0999 15.7773 16.9103 16.2351 16.5727 16.5727C16.2351 16.9103 15.7773 17.0999 15.2999 17.0999H13.4999C13.0225 17.0999 12.5647 16.9103 12.2271 16.5727C11.8895 16.2351 11.6999 15.7773 11.6999 15.2999V13.4999ZM6.2999 2.6999C6.2999 2.22252 6.48954 1.76468 6.82711 1.42711C7.16468 1.08954 7.62252 0.899902 8.0999 0.899902H9.8999C10.3773 0.899902 10.8351 1.08954 11.1727 1.42711C11.5103 1.76468 11.6999 2.22252 11.6999 2.6999V4.4999C11.6999 4.97729 11.5103 5.43513 11.1727 5.77269C10.8351 6.11026 10.3773 6.2999 9.8999 6.2999H8.0999C7.62252 6.2999 7.16468 6.11026 6.82711 5.77269C6.48954 5.43513 6.2999 4.97729 6.2999 4.4999V2.6999Z" stroke="black" stroke-width="2" stroke-linecap="round" stroke-linejoin="round"/>
</g>
<defs>
<clipPath id="clip0_1281_39">
<rect width="18" height="18" fill="white"/>
</clipPath>
</defs>
</svg>
