<svg width="27" height="27" viewBox="0 0 27 27" fill="none" xmlns="http://www.w3.org/2000/svg">
<path d="M13.0003 25.9996C16.448 25.9996 19.7546 24.6301 22.1923 22.1919C24.6305 19.754 26 16.4476 26 13.0001C26 9.55221 24.6305 6.24596 22.1923 3.80763C19.7544 1.36975 16.4479 0 13.0003 0C9.55237 0 6.24606 1.36975 3.8077 3.80763C1.36978 6.24551 0 9.55195 0 13.0001C0.00396973 16.4465 1.3748 19.7511 3.81195 22.1881C6.24911 24.6252 9.55345 25.996 13.0001 26L13.0003 25.9996ZM13.0003 1.99995V1.9997C15.9176 1.9997 18.7155 3.15858 20.7784 5.2216C22.8414 7.28436 24.0004 10.0822 24.0004 12.9996C24.0004 15.9168 22.8415 18.7146 20.7784 20.7776C18.7156 22.8405 15.9178 23.9995 13.0003 23.9995C10.0828 23.9995 7.28493 22.8406 5.22219 20.7776C3.1592 18.7148 2.00023 15.917 2.00023 12.9996C2.00371 10.0831 3.16359 7.28722 5.22588 5.22541C7.28791 3.16316 10.0838 2.00332 13.0002 1.99982L13.0003 1.99995Z" fill="#F4BC1D"/>
<rect x="5" y="12" width="16" height="2" rx="1" fill="#F4BC1D"/>
</svg>
