<svg width="20" height="18" viewBox="0 0 20 18" fill="none" xmlns="http://www.w3.org/2000/svg">
<path d="M18.1882 12.6212C18.2656 12.1537 18.2656 11.6763 18.1882 11.2088L18.9568 10.7148C19.0462 10.6584 19.0849 10.5424 19.0551 10.4329C18.8555 9.71677 18.5129 9.06692 18.066 8.52979C17.9975 8.44691 17.8873 8.42701 17.7979 8.48338L17.0292 8.9774C16.7045 8.66905 16.3321 8.43033 15.9299 8.27118V7.28313C15.9299 7.1704 15.8584 7.07094 15.7601 7.04773C15.0957 6.88195 14.4194 6.88858 13.7878 7.04773C13.6895 7.07094 13.618 7.1704 13.618 7.28313V8.27118C13.2158 8.43033 12.8434 8.66905 12.5187 8.9774L11.7501 8.48338C11.6637 8.42701 11.5505 8.44691 11.4819 8.52979C11.035 9.06692 10.6924 9.71677 10.4928 10.4329C10.463 10.5424 10.5047 10.6584 10.5911 10.7148L11.3598 11.2088C11.2823 11.6763 11.2823 12.1537 11.3598 12.6212L10.5911 13.1153C10.5018 13.1716 10.463 13.2877 10.4928 13.3971C10.6924 14.1132 11.035 14.7598 11.4819 15.3002C11.5505 15.3831 11.6607 15.403 11.7501 15.3466L12.5187 14.8526C12.8434 15.161 13.2158 15.3997 13.618 15.5588V16.5469C13.618 16.6596 13.6895 16.7591 13.7878 16.7823C14.4522 16.9481 15.1285 16.9414 15.7601 16.7823C15.8584 16.7591 15.9299 16.6596 15.9299 16.5469V15.5588C16.3321 15.3997 16.7045 15.161 17.0292 14.8526L17.7979 15.3466C17.8843 15.403 17.9975 15.3831 18.066 15.3002C18.5129 14.7631 18.8555 14.1132 19.0551 13.3971C19.0849 13.2877 19.0432 13.1716 18.9568 13.1153L18.1882 12.6212ZM14.7769 13.5231C13.9785 13.5231 13.332 12.8003 13.332 11.915C13.332 11.0297 13.9815 10.3069 14.7769 10.3069C15.5724 10.3069 16.2219 11.0297 16.2219 11.915C16.2219 12.8003 15.5754 13.5231 14.7769 13.5231ZM6.67346 8.73205C8.77977 8.73205 10.4869 6.83221 10.4869 4.48809C10.4869 2.14397 8.77977 0.244141 6.67346 0.244141C4.56715 0.244141 2.86005 2.14397 2.86005 4.48809C2.86005 6.83221 4.56715 8.73205 6.67346 8.73205ZM12.6677 16.2419C12.5991 16.2021 12.5306 16.1556 12.4651 16.1125L12.2297 16.2651C12.051 16.3778 11.8484 16.4408 11.6458 16.4408C11.3211 16.4408 11.0082 16.2883 10.7848 16.023C10.2396 15.3665 9.8225 14.5675 9.58714 13.7154C9.42329 13.1285 9.64375 12.5085 10.1204 12.2002L10.3558 12.0476C10.3528 11.9614 10.3528 11.8752 10.3558 11.789L10.1204 11.6365C9.64375 11.3315 9.42329 10.7081 9.58714 10.1213C9.61396 10.0251 9.65269 9.92897 9.68248 9.83282C9.56927 9.82287 9.45904 9.79303 9.34285 9.79303H8.84532C8.18393 10.1312 7.44806 10.3235 6.67346 10.3235C5.89886 10.3235 5.16597 10.1312 4.50161 9.79303H4.00408C1.79349 9.79303 0 11.789 0 14.2492V15.6285C0 16.5071 0.640533 17.2199 1.43003 17.2199H11.9169C12.2178 17.2199 12.4978 17.1139 12.7272 16.9381C12.6915 16.8121 12.6677 16.6828 12.6677 16.5469V16.2419Z" fill="white"/>
</svg>
