<svg width="20" height="18" viewBox="0 0 20 18" fill="none" xmlns="http://www.w3.org/2000/svg">
<path d="M6.67346 9.03478C8.77977 9.03478 10.4869 7.13495 10.4869 4.79083C10.4869 2.44671 8.77977 0.546875 6.67346 0.546875C4.56715 0.546875 2.86005 2.44671 2.86005 4.79083C2.86005 7.13495 4.56715 9.03478 6.67346 9.03478ZM9.34284 10.0958H8.84531C8.18393 10.434 7.44806 10.6263 6.67346 10.6263C5.89886 10.6263 5.16597 10.434 4.50161 10.0958H4.00408C1.79349 10.0958 0 12.0918 0 14.5519V15.9312C0 16.8098 0.640533 17.5227 1.43003 17.5227H9.61991C9.54841 17.2972 9.51862 17.0585 9.54245 16.8165L9.74504 14.7973L9.78079 14.4292L10.0161 14.1673L12.3191 11.6044C11.5892 10.6859 10.5316 10.0958 9.34284 10.0958ZM10.6924 14.9133L10.4898 16.9358C10.4571 17.274 10.7133 17.5592 11.0142 17.5194L12.8285 17.2939L16.9369 12.7217L14.8008 10.3444L10.6924 14.9133ZM18.8585 9.46249L17.7294 8.20588C17.4523 7.89753 16.9995 7.89753 16.7224 8.20588L15.5962 9.45918L15.4741 9.59511L17.6132 11.9724L18.8585 10.5865C19.1356 10.2748 19.1356 9.77416 18.8585 9.46249Z" fill="white"/>
</svg>
